<?xml version="1.0" standalone="no"?>
<!DOCTYPE svg PUBLIC "-//W3C//DTD SVG 20010904//EN"
 "http://www.w3.org/TR/2001/REC-SVG-20010904/DTD/svg10.dtd">
<svg version="1.0" xmlns="http://www.w3.org/2000/svg"
 width="1280.000000pt" height="1280.000000pt" viewBox="0 0 1280.000000 1280.000000"
 preserveAspectRatio="xMidYMid meet">
<metadata>
Created by potrace 1.15, written by Peter Selinger 2001-2017
</metadata>
<g transform="translate(0.000000,1280.000000) scale(0.100000,-0.100000)"
fill="#000000" stroke="none">
<path d="M2860 10726 c0 -2 20 -39 46 -81 168 -285 352 -727 435 -1044 62
-242 74 -334 73 -596 0 -210 -4 -280 -37 -560 -50 -440 -57 -523 -64 -810 -18
-769 133 -1567 469 -2470 331 -890 788 -1553 1373 -1995 344 -259 685 -415
1080 -492 95 -19 147 -22 390 -23 154 -1 269 2 255 5 -19 5 -12 8 32 14 32 4
63 4 69 0 8 -4 9 -3 5 4 -5 8 0 12 13 12 11 0 77 12 146 26 70 14 141 23 158
20 23 -4 26 -4 12 3 -17 7 -13 9 22 15 23 4 48 4 54 0 7 -4 9 -3 5 4 -8 13 46
26 76 17 16 -4 19 -3 10 3 -10 7 -4 11 22 16 20 4 41 4 48 0 7 -5 8 -3 3 6 -6
10 -1 12 26 7 19 -4 28 -3 22 1 -8 5 33 23 105 46 64 21 124 40 132 43 13 4
13 3 0 -6 -8 -6 -10 -11 -5 -11 13 0 43 20 30 20 -5 0 17 15 50 33 l60 32 13
-40 c27 -84 52 -234 58 -345 11 -189 -26 -292 -152 -431 l-75 -83 98 -27 c64
-17 102 -23 110 -17 7 5 17 7 22 4 11 -7 56 47 56 67 0 7 14 41 32 77 17 36
37 87 44 113 6 27 15 44 18 38 4 -6 7 56 6 137 0 133 -3 159 -32 267 -18 66
-48 167 -67 224 -20 58 -34 105 -33 106 1 1 19 12 39 24 21 12 41 20 46 17 9
-6 166 118 197 155 11 13 2 8 -20 -12 -40 -35 -123 -102 -160 -129 -38 -27 0
8 90 82 50 41 96 82 104 91 18 23 37 22 20 -1 -7 -9 31 26 84 78 88 86 122
123 82 90 -26 -22 -16 5 11 31 47 43 186 221 257 329 38 58 74 104 79 102 5
-1 7 2 3 7 -9 15 24 73 37 65 7 -4 8 -3 4 4 -4 6 10 44 30 84 78 155 166 405
189 538 8 41 9 43 16 20 6 -18 7 -13 3 15 -3 23 -1 61 5 85 5 25 15 112 22
193 23 291 -20 601 -145 1059 -98 354 -220 677 -381 1003 -251 511 -520 890
-900 1271 -425 426 -814 696 -1495 1038 -516 258 -854 401 -1475 621 -567 202
-755 279 -1160 475 -492 239 -795 367 -795 336z m549 -521 c958 -1041 2636
-3101 3045 -3740 472 -737 923 -1593 1235 -2347 177 -427 366 -994 348 -1042
-9 -23 -56 -51 -68 -39 -5 5 -28 72 -50 149 -252 863 -705 1853 -1282 2799
-240 393 -602 920 -895 1304 -305 400 -1345 1680 -2071 2550 -222 267 -426
514 -454 550 -48 62 -48 64 -13 31 21 -19 113 -116 205 -215z m5131 -6768 c0
-1 -33 -34 -72 -72 l-73 -70 70 73 c64 67 75 77 75 69z m-460 -1377 c-12 -16
-24 -30 -26 -30 -3 0 4 14 16 30 12 17 24 30 26 30 3 0 -4 -13 -16 -30z"/>
<path d="M9223 4905 c0 -22 2 -30 4 -17 2 12 2 30 0 40 -3 9 -5 -1 -4 -23z"/>
<path d="M9211 4834 c0 -11 3 -14 6 -6 3 7 2 16 -1 19 -3 4 -6 -2 -5 -13z"/>
<path d="M9171 4584 c0 -11 3 -14 6 -6 3 7 2 16 -1 19 -3 4 -6 -2 -5 -13z"/>
<path d="M9050 4218 c0 -3 -7 -22 -15 -42 -8 -20 -13 -36 -10 -36 8 0 36 73
30 78 -3 3 -5 3 -5 0z"/>
<path d="M8982 4065 c-17 -36 -30 -65 -27 -65 7 0 67 121 63 126 -2 2 -18 -26
-36 -61z"/>
<path d="M8920 3950 c-6 -11 -8 -20 -6 -20 3 0 10 9 16 20 6 11 8 20 6 20 -3
0 -10 -9 -16 -20z"/>
<path d="M8876 3875 c-9 -14 -23 -37 -32 -52 l-16 -28 20 24 c24 29 55 81 49
81 -3 0 -12 -11 -21 -25z"/>
<path d="M8759 3703 c-35 -49 -92 -122 -127 -163 -52 -61 -54 -65 -12 -21 63
66 219 271 207 271 -3 0 -33 -39 -68 -87z"/>
<path d="M7940 2935 c-14 -8 -20 -14 -14 -15 5 0 19 7 30 15 24 18 16 19 -16
0z"/>
<path d="M7890 2910 c-9 -6 -10 -10 -3 -10 6 0 15 5 18 10 8 12 4 12 -15 0z"/>
<path d="M7628 2813 c7 -3 16 -2 19 1 4 3 -2 6 -13 5 -11 0 -14 -3 -6 -6z"/>
<path d="M7518 2783 c7 -3 16 -2 19 1 4 3 -2 6 -13 5 -11 0 -14 -3 -6 -6z"/>
<path d="M7348 2743 c6 -2 18 -2 25 0 6 3 1 5 -13 5 -14 0 -19 -2 -12 -5z"/>
<path d="M7158 2703 c7 -3 16 -2 19 1 4 3 -2 6 -13 5 -11 0 -14 -3 -6 -6z"/>
<path d="M7103 2693 c9 -2 23 -2 30 0 6 3 -1 5 -18 5 -16 0 -22 -2 -12 -5z"/>
<path d="M6938 2663 c6 -2 18 -2 25 0 6 3 1 5 -13 5 -14 0 -19 -2 -12 -5z"/>
<path d="M8191 2288 c0 -9 -4 -25 -7 -35 -5 -17 -5 -17 6 0 6 10 9 25 7 35 -4
15 -5 15 -6 0z"/>
<path d="M8166 2215 c-9 -26 -7 -32 5 -12 6 10 9 21 6 23 -2 3 -7 -2 -11 -11z"/>
<path d="M8126 2128 l-18 -33 21 25 c18 22 26 40 18 40 -1 0 -11 -15 -21 -32z"/>
</g>
</svg>
