<svg width="274" height="178" viewBox="0 0 274 178" fill="none" xmlns="http://www.w3.org/2000/svg">
<path d="M270.826 2.94873H2.26208V175.678H270.826V2.94873Z" fill="#F0F0F0"/>
<path d="M4.30164 109.752L4.61994 105.917C5.14636 110.545 4.96681 113.891 5.41162 110.294C4.30164 109.752 5.29735 95.3922 4.18738 94.8593L4.41998 92.3317C4.41998 93.0583 4.47303 93.1728 4.46487 93.8861C4.99537 88.9718 3.64871 90.2356 3.82011 83.9033C3.9058 81.7016 4.06495 80.1559 4.19554 81.6619L3.92213 76.7432C3.94661 75.312 4.13841 75.6643 4.11801 77.0866L4.02823 69.6006L4.06088 69.6579C3.8854 68.5878 3.61607 66.1614 3.50181 64.9769C3.66096 63.0702 3.62015 65.9325 3.7589 65.4437L3.48956 61.2911C3.7793 59.6002 4.0568 63.0525 4.01599 65.9104C5.12188 62.0309 3.73849 62.4669 4.38326 54.0957L4.522 58.0149C5.15044 55.4873 4.93008 52.4268 5.31775 47.9924C5.11371 49.0449 4.33021 56.87 4.05271 52.3607C4.1643 50.5703 4.13153 48.7728 3.95477 46.9884C4.36285 46.962 4.24859 44.5885 4.22818 41.6205L4.75052 41.8231C4.59954 38.6085 4.34245 38.8639 4.0976 36.9792C4.15065 33.3991 4.55465 32.6549 4.91376 31.8138C4.99946 26.0892 4.26899 35.777 4.16698 28.9867C4.36693 24.2177 4.16698 20.871 3.8446 15.1684C4.02415 11.8305 4.1629 15.7497 4.30981 14.5519L3.90173 11.5927C3.90173 10.8706 4.04047 11.104 4.10577 11.2228C3.94253 8.73044 3.58342 11.0159 3.4406 7.09673C3.3657 6.92407 3.32406 6.73681 3.31817 6.54629V6.35694V6.20722C3.31817 6.10594 3.31817 5.99144 3.31817 5.87254C3.35263 5.33361 3.41393 4.79708 3.50181 4.26525L4.77093 4.4458L5.35856 4.52065C5.41569 4.52065 5.64014 4.54267 5.80337 4.55148L6.33387 4.5779C7.69592 4.65362 9.06151 4.5991 10.4147 4.41497C11.5205 4.5779 9.88007 4.76285 10.2188 4.97863C16.3848 4.51625 15.5034 4.64395 20.5676 4.02305L24.881 4.39296C21.7103 3.95261 25.7584 3.46822 29.3087 3.0719C28.1824 2.86933 27.2234 2.68878 26.5786 2.60511L32.2387 2.30128C32.9202 2.39375 32.3529 2.5875 31.4225 2.82529L32.4631 2.68878C34.5035 2.89574 33.4343 3.22162 31.9857 3.53867L29.9453 3.19079C28.5496 3.53426 27.2397 3.91297 27.5335 4.23883C27.9008 4.17718 28.6068 4.11994 29.3862 4.08911C29.023 4.18159 28.7904 4.26526 28.9577 4.3225C29.5328 4.31399 30.1056 4.24317 30.6676 4.11113L31.953 4.74083L32.2632 4.48983L39.6698 4.88175C44.9748 4.25204 49.5779 3.31849 57.9884 3.06308C55.899 3.50344 57.5395 3.81168 57.4253 4.35772C55.1319 3.78086 50.896 4.60433 46.5541 4.48543C48.8271 4.54708 48.3292 4.80689 47.7497 4.89936L55.5236 4.37534C55.3481 4.8157 57.1559 4.71 59.1963 4.89055C57.6619 4.00984 64.991 4.30488 68.1536 4.03626C68.3495 4.3313 67.5905 4.63514 63.7301 4.56028C67.9904 5.22522 69.231 3.52546 73.4097 4.08911C72.467 4.08911 71.961 4.04947 71.5896 4.2036C73.7892 3.93939 79.1717 4.14636 77.9026 4.40617H76.964C83.2199 4.51186 96.005 4.40616 96.9395 3.66636C97.0007 3.76324 96.1233 4.5691 95.7397 4.71882L106.901 2.19999C105.917 2.84291 109.692 4.37535 104.505 4.73644C106.661 4.88867 108.823 4.87983 110.977 4.71C109.961 4.61753 108.447 3.78085 109.835 3.71921C113.646 4.43698 112.479 4.10232 117.18 4.71441C115.658 4.5779 117.352 3.56509 119.755 3.60031C119.38 3.75003 119.959 4.59552 119.078 4.7012L125.044 3.67077C123.55 3.84691 124.779 4.50745 126.121 4.78928C125.497 4.59552 131.3 4.78927 132.895 4.71L130.357 4.48102C137.119 4.63074 137.037 3.08511 143.746 3.13795C142.93 3.34491 141.742 4.39735 145.154 4.52065C146.717 4.01425 152.091 2.0811 158.012 1.69359L159.151 1.98422L163.705 1.65396C160.869 2.41577 152.911 4.02306 148.565 4.64836C151.096 4.87734 149.271 4.98743 153.054 4.96101C154.393 5.23403 150.985 5.37494 149.871 5.40136L158.694 5.5775C158.286 4.98743 165.444 4.98302 165.109 4.48983L155.523 5.10633C155.136 4.51626 161.065 3.42417 167.317 3.52986C168.908 3.76324 166.129 4.5823 166.26 4.78046C167.076 4.5779 172.193 4.39295 172.769 4.53386L170.116 4.85092C173.597 5.0755 175.797 4.06709 179.979 4.63074C181.424 4.67037 184.289 5.39696 184.538 5.04468C182.183 4.37093 181.726 2.27925 183.313 1.77285C183.819 1.81688 190.895 2.41576 192.544 2.75043C194.919 3.28326 188.973 4.01425 190.997 4.46781C191.087 4.30929 192.397 4.10672 192.948 4.02746C194.462 4.16397 192.32 4.52506 195.613 4.46781C196.164 3.86453 202.313 4.51625 197.172 3.96141C200.395 3.78967 200.595 4.08471 204.382 4.05829C203.158 3.67077 207.778 2.73722 211.005 2.56548C210.818 2.7196 211.54 2.91776 211.895 3.00583C218.498 3.06308 222.044 3.3361 228.218 3.34051C228.785 3.48582 231.76 3.66196 230.491 3.91737C231.683 3.7153 232.888 3.60785 234.095 3.59591C237.767 4.11552 229.855 3.67517 232.658 4.30048C232.899 3.9526 237.555 3.81609 240.281 3.60031C239.465 3.06308 234.025 3.49904 231.303 3.71481C231.303 2.97061 236.008 2.19118 242.448 1.8477C247.565 1.66275 244.668 2.32769 245.553 2.222C255.168 2.35411 253.744 0.927361 261.726 1.46459C264.892 1.93577 261.868 2.40255 262.57 2.74603C258.404 2.92657 256.172 2.44659 253.344 2.46421L256.824 2.68878C254.954 2.88562 253.074 2.93272 251.197 2.82969C252.311 3.00584 255.347 3.04988 259.04 3.06749L264.917 3.09391L267.92 3.11592L270.642 3.16437L270.589 5.3133C270.56 6.00466 270.536 6.66519 270.511 7.28168C270.658 8.70403 270.813 11.1612 270.989 9.99866L270.928 7.46662C271.283 5.13715 271.417 12.2313 271.581 9.02548C271.83 12.4206 272.221 16.2297 272.021 21.0119L271.519 21.8926C271.666 21.7914 271.817 18.7661 271.666 17.423C271.887 19.4178 270.989 24.7549 271.646 26.9391L271.993 23.588C272.242 26.9963 272.772 31.2105 272.617 35.4511C273.111 33.5224 272.56 34.4735 273.139 31.4615C272.417 34.0728 273.168 20.62 272.413 24.8166C273.082 21.7341 272.695 19.4663 273.27 15.4282C273.103 15.5515 272.952 16.8594 273.033 13.3013C272.97 13.045 272.923 12.7847 272.891 12.5219V12.2797V12.4779C272.866 12.3237 272.862 12.3105 272.891 12.5483C272.857 13.1597 272.773 13.7668 272.642 14.3626C272.424 12.8366 272.307 11.2959 272.291 9.75206C272.258 8.81411 272.225 7.87175 272.193 7.04389C272.193 6.56831 272.156 6.12355 272.144 5.72283C272.123 5.24284 272.103 4.84212 272.078 4.51185C272.115 3.02786 272.164 3.28326 272.221 3.74123C272.278 4.1992 272.356 4.85973 272.442 3.957L272.254 1.41175L270.797 1.52625C270.773 1.42937 270.311 1.3369 269.708 1.25323L267.814 1.01985C267.724 1.01016 267.636 0.992472 267.549 0.966991C267.499 0.955262 267.45 0.939066 267.402 0.918559C267.333 0.88333 267.328 0.852505 267.402 0.82168C267.475 0.790855 268.43 0.698375 270.369 0.636726H265.145C262.527 0.399215 259.897 0.352148 257.273 0.495822C255.315 0.407752 252.332 0.936167 254.033 0.623515L247.528 0.870126L247.471 0.76884C241.052 0.720401 234.258 1.42497 226.921 0.711592C224.762 0.80847 222.526 0.931769 218.914 0.82168L218.208 0.478204C215.433 0.5971 209.875 0.134728 208.684 0.478204C205.692 -0.442136 195.217 0.280051 190.32 0.112716L190.136 0.553071C186.778 0.526649 183.558 0.654345 179.392 0.83489L179.645 1.22681C176.054 1.55267 170.406 0.949385 164.721 0.989017C165.109 0.834893 166.549 0.874517 167.578 0.966991C160.787 0.0862827 153.25 1.61431 147.088 0.966991C145.85 1.08933 144.604 1.08933 143.367 0.966991C143.493 0.967222 143.62 0.959877 143.746 0.944979H143.118C142.44 0.878926 141.742 0.799657 140.983 0.733604C141.628 0.830482 142.24 0.909751 142.779 0.944979C141.595 0.944979 139.8 1.00223 138.037 1.10351L137.29 0.663159H136.882C135.156 0.509035 135.495 0.865719 136.417 1.18277C135.527 1.25323 134.715 1.33689 134.087 1.43817C132.683 0.755624 129.471 1.67156 127.558 0.940571C126.374 1.29726 118.71 1.20919 117.764 1.95779C117.702 1.86091 117.184 1.81247 118.135 1.80807C116.242 1.67073 114.342 1.68398 112.451 1.8477L111.634 1.31048L107.35 2.03265C104.75 1.70679 103.677 1.51304 106.252 1.09911C100.012 1.73762 101.192 1.3413 95.8825 1.97981L96.1437 1.63193C94.2462 1.63193 91.2141 2.11192 90.0674 1.82569C85.8275 1.16075 69.0718 1.73322 58.1802 1.11672C60.294 2.14275 53.12 0.67636 52.6875 1.45138C52.0509 1.20919 50.5328 1.07268 52.2998 0.861311C46.7377 1.0991 43.9464 0.4782 40.1064 1.14754C39.4739 0.905343 41.298 0.790858 40.7308 0.645541C39.9553 0.768631 39.1688 0.790805 38.3884 0.711592C37.8212 0.570678 39.2046 0.509023 40.0819 0.403338C34.4015 0.44297 33.8302 1.19158 33.4139 1.89615C30.5574 1.56148 29.1006 1.60991 27.0234 2.07228C26.0236 1.8389 24.3505 1.6011 27.8804 1.51743C25.8931 1.48221 15.7523 1.18277 15.5524 1.74202C14.4547 1.64687 13.3513 1.65571 12.2551 1.76844L7.61523 1.72001H5.69319L2.21228 1.74202L3.87316 1.83449C3.13238 2.06894 2.36398 2.18612 1.592 2.18237C1.592 3.06308 1.56751 3.96581 1.53079 5.08871C1.53079 5.62154 1.50222 6.18519 1.4859 6.80169C1.4859 7.33011 1.4859 7.89817 1.4859 8.51026L1.42061 8.40017C0.963563 17.128 1.63689 12.1696 1.11863 20.7741L1.52671 20.3074C2.36735 21.1088 1.02886 27.9343 1.35124 32.9279L1.57568 31.1225C1.86541 33.8527 0.428978 38.7494 0.326958 41.4884C0.253504 42.0873 0.208616 40.546 0.155566 39.727C-0.342289 46.9004 0.665667 40.6561 0.78401 46.002C0.510598 46.9884 0.082113 44.7294 0.0290628 48.3271C-0.191299 50.1193 0.930917 58.7635 0.400415 63.6734C0.612616 62.5902 0.808491 61.5157 0.983964 63.9993C1.0615 67.804 0.167807 74.286 0.849298 77.7252C0.792167 78.2051 0.735041 78.3901 0.68199 78.4077C0.857464 81.3184 0.971722 87.8621 1.33491 89.6147C-0.015827 92.3009 1.99192 107.7 0.747278 107.634L0.812572 116.582L0.686069 116.349C0.604453 122.073 0.902348 124.09 1.20025 126.102C1.11863 127.424 1.00029 126.459 0.934997 126.349C0.681988 134.716 0.735039 135.535 1.34308 142.541L0.934997 143.272C1.1676 145.17 0.298391 155.355 0.771762 163.528C0.649399 163.253 0.586602 162.952 0.588128 162.647C0.694228 164.651 0.698308 166.826 0.657501 169.041C0.592208 171.908 0.522839 174.823 0.457546 177.611L6.01149 177.747C7.19492 177.778 8.30897 177.791 9.31692 177.747C11.3328 177.699 12.9162 177.514 13.8058 177.065L19.4454 176.673C12.149 176.549 20.5309 175.986 17.5315 175.722C20.3881 175.629 24.9504 176.202 21.4246 176.281L20.8737 176.202C19.576 177.029 29.9371 176.497 29.7412 177.082C44.0974 177.043 58.0904 177.501 71.5407 177.523L69.99 176.88L74.6829 176.915C75.9071 177.065 76.3152 177.417 72.9853 177.391C74.7482 177.756 78.6004 177.087 78.6984 176.95C85.2521 177.21 76.1397 177.703 78.1475 177.716L80.8775 177.668L80.2491 177.611C82.4609 177.346 82.6567 177.069 86.6804 177.1C89.2268 177.232 87.9862 177.501 88.986 177.54C88.986 177.589 89.3207 177.606 90.5245 177.54L96.4334 177.597L94.0707 177.087C96.6905 176.836 99.6287 177.113 96.9027 176.541C100.906 177.421 118.939 176.858 121.387 177.135C125.06 176.761 128.68 176.77 133.165 176.814C132.051 176.708 131.381 176.136 135.25 176.206C133.838 177.386 142.338 176.717 145.452 177.567C142.656 177.003 156.47 177.43 152.067 176.629C155.295 176.726 152.263 177.069 154.711 177.347C162.395 176.906 171.646 177.646 181.146 177.492C181.293 177.338 179.702 177.1 181.738 176.871L186.753 177.642C188.631 177.567 188.484 176.761 191.907 177.289C191.426 177.157 190.683 176.959 191.96 176.911C210.569 177.664 229.985 176.294 248.879 177.712C246.321 177.413 248.026 177.382 249.981 177.369C248.712 177.298 250.01 176.985 249.761 176.778L257.673 177.36C259.114 176.778 266.153 177.32 266.982 176.765L264.476 176.862C267.806 176.206 259.812 175.405 260.301 174.559C256.62 175.321 250.499 173.467 244.378 174.528C243.027 174.356 245.533 174.255 244.811 174.057C243.256 174.423 241.383 174.497 237.91 174.334L238.318 174.246C228.561 174.334 224.378 173.978 213.425 173.74L214.242 174.154C212.92 174.134 211.6 174.036 210.287 173.863C207.586 174.497 216.902 173.899 214.437 174.599C211.316 173.749 197.833 174.599 195.723 173.621C192.099 173.621 196.784 174.101 193.16 174.097L192.201 173.837L191.287 174.172C188.912 174.119 187.712 173.793 187.614 173.568C188.194 173.595 189.247 173.507 189.871 173.489C186.79 173.181 181.187 173.595 180.13 173.489L183.574 173.648C173.687 173.89 161.616 173.546 152.063 174.088L152.789 174.286C145.497 174.647 146.945 174.066 138.939 174.238L139.229 174.189C137.257 174.404 135.276 174.495 133.295 174.462C135.315 174.233 129.492 174.022 132.144 173.758C124.232 174.15 128.231 174.066 123.008 174.797L121.783 174.471C120.004 174.766 119.857 174.911 115.858 175.008C119.123 174.726 113.303 174.511 116.98 174.128C108.586 173.414 104.517 174.85 100.657 173.806C96.8048 174.709 107.921 174.308 105.762 174.502C107.57 174.797 102.579 175.176 99.947 175.087C97.2659 175.087 95.3888 173.929 88.6432 173.947C89.3125 173.947 89.3615 173.885 90.0307 173.885C87.5047 173.656 85.0848 174.198 81.9875 173.824C80.2532 174.37 77.9679 173.793 77.4701 174.489L83.6565 174.33C80.147 174.511 76.8579 175.325 71.0795 174.933C72.1882 174.722 73.3066 174.575 74.4299 174.493C72.7404 174.29 71.1653 174.63 69.4268 174.418C69.9247 173.722 76.9436 174.268 80.702 173.736C78.8902 173.441 73.5933 174.242 75.4827 173.485C72.769 174.445 68.8392 173.366 64.2687 174.097L64.5707 173.656C63.8484 173.722 62.3508 173.921 61.0204 173.912L63.4281 173.37C59.7309 173.81 56.303 172.965 52.7528 173.216C60.1798 173.216 54.4218 173.718 57.5599 174.026C48.4027 174.585 52.2957 172.93 42.053 173.146C43.4404 173.084 47.2641 173.397 45.0931 173.586C43.1384 173.498 40.5635 173.339 39.38 173.119C32.5855 173.207 40.4247 173.559 37.5314 173.806C35.2176 173.295 34.1974 174.013 31.2185 174.176L31.1981 173.736C23.4446 173.463 29.1577 174.616 22.1714 174.29L25.1177 173.7L21.4858 173.854L22.2367 173.37C18.2824 173.727 17.05 173.634 13.1773 173.498C14.0792 173.797 12.6713 174.273 9.24347 174.286C6.90518 174.031 10.5534 173.881 5.68911 173.943C7.12662 173.509 8.63707 173.437 10.1045 173.731C10.3208 173.595 11.19 173.467 11.4104 173.33C9.97071 173.196 8.5252 173.149 7.08065 173.19H5.99109H5.46875H5.27287C5.08107 173.19 4.89744 173.22 4.76277 173.225C4.95911 173.228 5.15407 173.261 5.34224 173.322C5.00354 173.405 4.59138 173.489 4.11801 173.573C4.06496 173.326 4.01191 173.049 3.95886 172.732L3.88132 172.23C3.88132 172.203 3.88132 172.097 3.88132 172.005L3.86092 171.732L3.82419 171.182C3.9711 169.984 4.08944 170.935 4.20779 171.877C4.1629 170.336 3.98334 169.27 3.95069 167.007C4.269 167.593 4.59954 167.447 4.76685 170.658L4.37918 163.519C4.51792 163.035 4.76277 159.798 4.87703 160.741C5.06883 156.725 4.25675 150.886 4.50568 145.562C4.4007 144.913 4.34474 144.256 4.33837 143.598C4.41182 138.595 4.80358 134.161 4.36694 128.229L4.93824 124.865C4.80766 120.219 4.21594 129.418 3.99966 121.686C3.81603 116.208 4.48935 119.638 4.6485 117.723C4.35877 115.001 3.77114 110.263 4.24043 105.234C4.34653 106.89 4.26083 108.198 4.30164 109.752ZM4.04864 52.4576C4.13025 53.5673 4.38734 55.7823 4.15473 56.5925C3.70177 55.3287 3.91805 54.3511 4.04864 52.4576V52.4576ZM37.103 3.85573C36.0154 3.96988 34.9189 3.93881 33.8383 3.76324C34.9246 3.72792 36.0118 3.7588 37.0948 3.85573H37.103ZM261.954 0.896546L261.844 0.918559C259.526 0.751224 260.338 0.817283 261.925 0.896546H261.954ZM266.72 1.08149C267.198 1.02424 267.165 0.962595 266.965 0.905349C266.095 1.02103 265.216 1.04904 264.341 0.989017C264.656 1.09911 265.272 1.17837 266.696 1.08149H266.72ZM89.5165 177.382L88.5902 177.267C90.6836 177.17 90.096 177.258 89.5165 177.382Z" fill="#F0F0F0"/>
</svg>
